<svg id="svg" xmlns="http://www.w3.org/2000/svg" xmlns:xlink="http://www.w3.org/1999/xlink" width="400" height="237.2093023255814" viewBox="0, 0, 400,237.2093023255814" version="1.1"><g id="svgg"><path id="path0" d="M48.799 52.639 C 48.582 53.703,48.622 159.243,48.841 160.617 L 49.010 161.684 49.177 160.380 C 49.395 158.668,49.351 53.204,49.132 52.432 C 48.969 51.859,48.957 51.866,48.799 52.639 M355.516 85.082 C 355.003 85.459,354.910 89.700,355.411 89.877 C 355.776 90.007,355.705 105.750,355.338 105.872 C 355.112 105.947,355.042 107.336,355.042 111.744 C 355.042 116.151,355.112 117.540,355.338 117.616 C 355.568 117.692,355.641 119.828,355.663 127.125 C 355.691 136.472,355.804 138.469,356.250 137.485 C 356.556 136.811,356.534 85.643,356.228 85.131 C 356.017 84.779,355.938 84.773,355.516 85.082 M313.210 85.530 C 312.632 86.195,312.543 86.743,312.989 86.892 C 313.223 86.970,313.319 92.553,313.442 113.187 C 313.604 140.276,313.692 142.947,314.383 141.578 C 314.442 141.462,314.876 114.896,314.871 111.744 C 314.859 104.569,314.569 85.966,314.461 85.469 C 314.309 84.770,313.851 84.792,313.210 85.530 M286.137 144.998 C 286.128 145.346,286.018 145.666,285.892 145.710 C 285.552 145.827,285.514 152.388,285.853 152.501 C 286.000 152.550,286.130 152.821,286.141 153.104 C 286.200 154.604,286.814 150.667,286.819 148.754 C 286.825 146.734,286.182 143.195,286.137 144.998 M276.631 160.617 C 276.631 160.747,276.845 160.854,277.106 160.854 C 277.367 160.854,277.580 160.747,277.580 160.617 C 277.580 160.486,277.367 160.380,277.106 160.380 C 276.845 160.380,276.631 160.486,276.631 160.617 M122.716 170.287 C 123.075 170.509,123.369 170.853,123.370 171.051 C 123.371 171.292,123.548 171.201,123.904 170.776 C 124.197 170.426,124.650 170.092,124.911 170.032 C 125.172 169.973,124.638 169.915,123.725 169.903 C 122.066 169.882,122.065 169.883,122.716 170.287 " stroke="none" fill="#393e47" fill-rule="evenodd"></path><path id="path1" d="M0.000 118.624 L 0.000 237.248 200.000 237.248 L 400.000 237.248 400.000 118.624 L 400.000 0.000 200.000 0.000 L 0.000 0.000 0.000 118.624 M223.798 42.744 C 224.736 42.897,225.558 43.086,225.623 43.165 C 225.688 43.244,226.015 43.482,226.349 43.695 C 226.706 43.921,227.077 44.482,227.248 45.053 C 227.409 45.588,227.619 46.026,227.716 46.026 C 227.813 46.026,228.071 46.328,228.289 46.697 C 228.507 47.066,229.099 47.554,229.605 47.782 C 230.517 48.194,231.317 49.192,231.317 49.918 C 231.317 50.126,231.409 50.297,231.521 50.297 C 232.223 50.297,232.266 53.536,232.266 107.258 C 232.266 161.247,232.230 163.938,231.513 163.938 C 231.405 163.938,231.317 164.093,231.317 164.283 C 231.317 165.051,230.697 165.901,229.804 166.357 C 228.827 166.855,228.017 167.650,228.003 168.124 C 227.999 168.273,227.845 168.453,227.662 168.523 C 227.478 168.594,227.260 168.964,227.176 169.346 C 226.635 171.808,227.644 171.740,191.417 171.755 C 166.407 171.765,160.353 171.827,160.100 172.074 C 159.928 172.243,159.445 172.520,159.027 172.691 C 158.610 172.862,157.889 173.370,157.426 173.819 L 156.584 174.637 156.584 184.116 C 156.584 190.469,156.664 193.594,156.828 193.594 C 156.963 193.594,157.141 193.781,157.225 194.009 C 157.431 194.575,159.239 196.441,159.580 196.441 C 159.731 196.441,159.916 196.601,159.991 196.797 C 160.100 197.082,160.624 197.153,162.629 197.153 C 164.189 197.153,165.331 197.265,165.662 197.450 C 165.953 197.613,166.233 197.769,166.284 197.798 C 166.334 197.827,166.120 198.118,165.809 198.446 C 165.277 199.007,165.098 199.043,162.811 199.047 C 161.474 199.049,160.380 199.143,160.380 199.256 C 160.380 199.491,158.540 200.237,157.960 200.237 C 157.747 200.237,157.528 200.371,157.473 200.534 C 157.348 200.908,152.719 200.861,152.593 200.484 C 152.548 200.348,152.226 200.237,151.878 200.238 C 150.787 200.239,147.094 199.487,147.094 199.264 C 147.094 198.970,132.447 198.985,132.345 199.278 C 132.301 199.403,131.198 199.691,129.893 199.918 C 128.588 200.145,127.466 200.408,127.400 200.502 C 126.921 201.181,120.522 201.168,120.522 200.488 C 120.522 200.398,120.148 200.147,119.692 199.929 C 119.235 199.711,118.861 199.425,118.861 199.292 C 118.861 199.145,117.913 199.048,116.429 199.044 C 114.229 199.037,111.993 198.275,112.725 197.782 C 113.358 197.355,114.539 197.153,116.402 197.153 C 118.710 197.153,120.285 196.417,120.285 195.338 C 120.285 195.181,120.419 194.911,120.584 194.738 C 121.417 193.865,121.471 193.204,121.470 183.797 L 121.469 174.496 120.610 173.488 C 120.138 172.933,119.616 172.479,119.450 172.479 C 119.285 172.479,119.089 172.323,119.016 172.131 C 118.899 171.828,114.663 171.775,86.262 171.716 L 53.642 171.649 52.815 170.746 C 52.360 170.250,51.840 169.396,51.658 168.848 C 51.354 167.933,51.234 167.829,50.161 167.561 C 49.519 167.400,48.958 167.159,48.914 167.027 C 48.870 166.894,48.685 166.785,48.503 166.785 C 48.321 166.785,47.985 166.492,47.757 166.133 C 47.529 165.774,47.275 165.427,47.193 165.362 C 45.794 164.250,45.844 48.873,47.244 48.873 C 47.364 48.873,47.564 48.604,47.688 48.276 C 47.813 47.947,48.209 47.567,48.567 47.430 C 48.926 47.294,49.275 47.104,49.343 47.009 C 49.411 46.913,49.885 46.733,50.397 46.609 C 51.208 46.411,51.370 46.254,51.656 45.393 C 52.191 43.780,53.337 42.750,54.716 42.643 C 58.013 42.386,222.197 42.485,223.798 42.744 M57.063 46.542 C 56.413 46.666,55.826 46.846,55.758 46.942 C 55.690 47.038,55.294 47.354,54.878 47.645 C 54.461 47.936,54.055 48.379,53.976 48.630 C 53.896 48.881,53.623 49.152,53.369 49.233 C 53.114 49.314,52.906 49.512,52.906 49.675 C 52.906 49.837,52.666 50.228,52.372 50.543 L 51.839 51.116 51.720 106.163 C 51.605 159.773,51.639 162.942,52.342 163.645 C 52.522 163.825,52.669 164.127,52.669 164.316 C 52.669 164.505,52.936 164.782,53.262 164.930 C 53.588 165.079,53.855 165.336,53.855 165.501 C 53.855 165.667,54.149 166.022,54.508 166.291 C 54.867 166.560,55.277 166.877,55.421 166.996 C 56.413 167.816,57.924 167.854,88.849 167.820 C 105.552 167.802,122.046 167.796,125.504 167.808 C 133.369 167.836,145.551 167.847,153.618 167.835 C 157.011 167.830,173.505 167.832,190.273 167.839 C 223.562 167.854,222.536 167.895,223.343 166.528 C 223.568 166.148,223.840 165.836,223.949 165.836 C 224.058 165.836,224.212 165.488,224.292 165.062 C 224.447 164.234,225.786 162.511,226.272 162.513 C 227.311 162.519,227.284 164.016,227.284 107.117 C 227.284 50.219,227.311 51.716,226.272 51.722 C 225.852 51.724,224.497 50.096,224.315 49.371 C 224.231 49.035,224.088 48.705,223.997 48.638 C 223.907 48.572,223.646 48.224,223.417 47.865 C 223.189 47.506,222.853 47.212,222.671 47.212 C 222.490 47.212,222.299 47.086,222.247 46.931 C 222.187 46.750,221.181 46.586,219.440 46.473 C 215.342 46.206,58.473 46.273,57.063 46.542 M152.149 74.347 C 153.680 75.879,154.000 80.435,152.670 81.765 C 152.498 81.937,152.215 82.398,152.042 82.791 C 151.840 83.246,151.410 83.631,150.855 83.853 C 149.879 84.244,149.619 84.989,149.315 88.263 C 149.230 89.173,149.069 89.917,148.958 89.917 C 148.846 89.917,148.754 90.170,148.754 90.480 C 148.754 91.122,148.122 93.035,147.845 93.229 C 147.745 93.299,147.476 93.757,147.248 94.247 C 147.000 94.779,146.667 95.136,146.418 95.136 C 145.889 95.136,145.433 95.588,145.433 96.113 C 145.433 96.337,145.324 96.557,145.192 96.601 C 145.059 96.645,144.797 97.908,144.608 99.408 C 144.182 102.810,144.006 103.677,143.743 103.677 C 143.628 103.677,143.535 103.896,143.535 104.164 C 143.535 104.774,142.889 106.050,142.580 106.050 C 142.453 106.050,142.349 106.215,142.349 106.418 C 142.349 106.620,141.984 106.938,141.539 107.124 C 140.715 107.468,140.214 108.726,140.214 110.451 C 140.214 110.770,140.107 111.032,139.976 111.032 C 139.846 111.032,139.739 111.370,139.739 111.784 C 139.739 113.046,139.231 115.540,138.908 115.863 C 138.740 116.030,138.375 116.667,138.097 117.277 C 137.784 117.965,137.436 118.390,137.183 118.394 C 136.094 118.414,135.699 119.467,135.228 123.606 C 135.087 124.846,134.870 125.896,134.746 125.939 C 134.621 125.983,134.515 126.250,134.509 126.532 C 134.493 127.348,133.870 128.891,133.465 129.117 C 133.262 129.231,133.096 129.484,133.096 129.680 C 133.096 129.876,132.724 130.192,132.268 130.382 C 131.571 130.673,131.416 130.877,131.289 131.675 C 131.206 132.196,131.059 132.622,130.963 132.622 C 130.867 132.622,130.662 133.769,130.507 135.172 C 130.323 136.847,130.108 137.813,129.882 137.986 C 129.692 138.131,129.537 138.352,129.537 138.478 C 129.537 139.044,128.375 139.797,127.746 139.639 C 126.947 139.438,125.979 138.810,125.979 138.492 C 125.979 138.359,125.806 138.123,125.594 137.968 C 125.171 137.659,125.330 133.808,125.766 133.808 C 125.883 133.808,125.979 133.560,125.979 133.258 C 125.979 132.460,126.650 130.324,127.015 129.959 C 127.187 129.787,127.455 129.408,127.610 129.117 C 127.766 128.826,128.091 128.588,128.332 128.588 C 128.778 128.588,129.537 127.333,129.537 126.595 C 129.537 126.387,129.629 126.216,129.741 126.216 C 129.852 126.216,130.015 125.442,130.103 124.496 C 130.321 122.127,130.766 119.810,131.002 119.810 C 131.110 119.810,131.198 119.613,131.198 119.372 C 131.198 118.820,131.877 117.438,132.148 117.438 C 132.261 117.438,132.420 117.224,132.503 116.964 C 132.586 116.703,132.916 116.424,133.237 116.343 C 134.000 116.152,134.255 115.631,134.437 113.890 C 134.520 113.101,134.664 112.456,134.758 112.456 C 134.852 112.456,134.998 111.776,135.083 110.945 C 135.256 109.255,135.864 106.999,136.146 106.999 C 136.247 106.999,136.508 106.625,136.726 106.168 C 136.943 105.712,137.298 105.338,137.514 105.338 C 137.977 105.338,138.535 104.675,138.545 104.112 C 138.549 103.895,138.666 103.679,138.805 103.633 C 138.944 103.586,139.215 102.273,139.407 100.715 C 139.600 99.157,139.846 97.825,139.956 97.755 C 140.066 97.685,140.232 97.170,140.325 96.611 C 140.515 95.479,141.088 94.187,141.401 94.187 C 141.513 94.187,141.670 93.983,141.749 93.733 C 141.829 93.483,142.203 93.170,142.582 93.038 C 143.113 92.853,143.306 92.605,143.429 91.951 C 143.516 91.485,143.669 91.103,143.768 91.103 C 143.867 91.103,144.022 90.329,144.112 89.383 C 144.319 87.211,144.887 84.416,145.157 84.239 C 145.270 84.165,145.549 83.708,145.777 83.223 C 146.004 82.739,146.404 82.275,146.666 82.192 C 147.794 81.833,148.334 80.623,148.642 77.758 C 148.723 77.008,148.862 76.394,148.953 76.394 C 149.043 76.394,149.359 75.884,149.655 75.261 C 149.951 74.637,150.430 74.010,150.719 73.866 C 151.009 73.723,151.269 73.592,151.297 73.576 C 151.325 73.560,151.709 73.907,152.149 74.347 M296.061 80.130 C 297.233 80.800,297.391 81.516,296.805 83.485 C 296.529 84.413,296.212 85.172,296.101 85.172 C 295.990 85.172,295.835 85.431,295.755 85.747 C 295.658 86.134,295.341 86.411,294.781 86.595 C 294.324 86.746,293.950 86.951,293.950 87.050 C 293.950 87.150,293.509 87.377,292.970 87.555 C 292.431 87.733,291.870 87.991,291.724 88.130 C 291.578 88.268,291.160 88.573,290.794 88.807 C 290.428 89.041,290.061 89.413,289.978 89.634 C 289.895 89.855,289.683 90.144,289.506 90.277 C 289.049 90.621,289.162 145.696,289.620 145.848 C 289.950 145.958,290.035 147.094,289.714 147.094 C 289.602 147.094,289.437 148.081,289.348 149.288 C 289.137 152.129,288.716 154.686,288.459 154.686 C 288.347 154.686,288.256 154.903,288.256 155.170 C 288.256 155.765,287.378 157.533,287.082 157.533 C 286.964 157.533,286.726 157.668,286.553 157.833 C 286.381 157.999,285.786 158.335,285.231 158.581 C 284.677 158.827,284.221 159.092,284.219 159.170 C 284.217 159.248,283.885 159.686,283.481 160.142 C 283.077 160.599,282.553 161.217,282.317 161.515 C 281.858 162.095,280.125 162.644,277.947 162.900 C 274.794 163.271,273.395 160.293,275.926 158.598 C 276.313 158.338,276.630 158.046,276.630 157.948 C 276.631 157.850,276.811 157.770,277.031 157.770 C 277.878 157.770,279.430 156.809,279.586 156.187 C 279.670 155.850,280.352 154.973,281.101 154.240 C 282.638 152.735,283.037 151.993,283.037 150.641 C 283.037 150.125,283.144 149.703,283.274 149.703 C 283.405 149.703,283.511 149.088,283.511 148.330 C 283.511 147.575,283.671 145.680,283.865 144.119 C 284.159 141.765,284.220 136.989,284.221 116.103 C 284.223 89.473,284.247 90.108,283.201 88.803 C 282.400 87.803,281.198 86.625,280.733 86.385 C 280.445 86.236,280.021 85.719,279.792 85.236 C 279.563 84.753,279.185 84.167,278.952 83.934 C 278.719 83.702,278.529 83.375,278.529 83.208 C 278.529 83.041,278.316 82.722,278.055 82.499 C 277.432 81.966,277.454 81.459,278.114 81.112 C 278.407 80.957,278.701 80.752,278.766 80.656 C 279.453 79.648,294.422 79.193,296.061 80.130 M314.965 80.786 C 315.767 81.662,316.489 83.830,316.489 85.365 C 316.489 85.781,316.591 86.121,316.716 86.121 C 316.857 86.121,316.970 89.953,317.013 96.145 C 317.087 106.876,317.139 107.342,318.387 108.355 C 318.839 108.723,350.908 108.793,351.590 108.429 C 351.827 108.302,352.087 107.935,352.168 107.615 C 352.248 107.294,352.501 106.845,352.729 106.617 C 353.365 105.981,353.365 89.748,352.728 89.112 C 352.500 88.884,352.313 88.541,352.313 88.350 C 352.313 87.926,350.784 86.358,350.370 86.358 C 350.079 86.358,348.517 84.760,348.517 84.462 C 348.517 84.380,348.310 84.090,348.056 83.818 C 346.636 82.293,346.481 80.902,347.732 80.902 C 347.903 80.902,348.043 80.802,348.043 80.681 C 348.043 79.880,355.065 79.317,356.379 80.013 C 357.855 80.795,359.193 83.492,359.193 85.684 C 359.193 85.925,359.300 86.121,359.431 86.121 C 359.587 86.121,359.668 94.155,359.668 109.750 C 359.668 136.595,359.568 135.123,361.510 137.010 C 362.113 137.596,362.826 138.144,363.094 138.227 C 363.363 138.311,363.636 138.453,363.701 138.542 C 363.766 138.631,364.304 138.936,364.897 139.219 C 365.762 139.632,366.061 139.944,366.415 140.804 C 366.658 141.392,366.950 141.874,367.065 141.874 C 367.179 141.874,366.792 142.355,366.205 142.942 L 365.137 144.009 362.860 144.009 C 361.152 144.009,360.494 143.921,360.227 143.654 C 360.031 143.458,359.692 143.298,359.473 143.297 C 359.254 143.297,358.789 143.051,358.440 142.751 C 358.091 142.451,357.401 141.997,356.908 141.743 C 355.637 141.089,354.169 139.547,353.705 138.381 C 353.538 137.960,353.390 134.060,353.294 127.571 C 353.195 120.868,353.058 117.363,352.893 117.251 C 352.755 117.158,352.498 116.726,352.322 116.291 C 351.688 114.724,352.912 114.828,335.044 114.828 L 318.758 114.828 318.214 115.461 C 317.052 116.813,316.963 117.724,316.963 128.276 C 316.963 133.954,316.873 138.078,316.749 138.078 C 316.631 138.078,316.498 139.088,316.452 140.323 L 316.370 142.567 315.342 143.526 C 314.776 144.053,314.274 144.484,314.226 144.484 C 313.953 144.484,312.760 143.834,312.426 143.502 C 312.211 143.289,311.863 143.018,311.654 142.901 C 310.774 142.408,310.721 141.008,310.626 115.362 C 310.569 99.826,310.448 90.391,310.308 90.391 C 310.184 90.391,310.083 90.228,310.083 90.027 C 310.083 89.494,309.369 88.493,308.988 88.493 C 308.807 88.493,308.660 88.389,308.660 88.262 C 308.660 88.135,308.313 87.854,307.888 87.637 C 307.464 87.420,307.032 87.097,306.928 86.919 C 306.823 86.741,306.601 86.595,306.433 86.595 C 306.046 86.595,304.389 84.766,304.389 84.339 C 304.389 84.163,304.245 83.876,304.069 83.700 C 302.558 82.189,303.582 80.090,305.936 79.875 C 306.586 79.815,308.708 79.805,310.652 79.852 L 314.187 79.937 314.965 80.786 M171.328 84.015 C 172.012 84.162,172.719 84.429,172.899 84.609 C 173.078 84.788,173.386 84.935,173.582 84.935 C 174.002 84.935,175.801 86.739,175.801 87.160 C 175.801 87.525,177.140 88.019,178.131 88.019 C 178.546 88.019,178.885 88.126,178.885 88.256 C 178.885 88.387,179.026 88.493,179.198 88.493 C 179.792 88.493,181.948 89.218,182.255 89.521 C 182.424 89.688,182.909 90.029,183.333 90.278 C 183.757 90.527,184.104 90.850,184.104 90.997 C 184.104 91.865,185.962 92.773,188.434 93.113 C 189.054 93.198,189.561 93.361,189.561 93.474 C 189.561 93.588,189.801 93.757,190.095 93.849 C 190.714 94.044,192.408 95.665,192.408 96.061 C 192.408 96.209,192.782 96.509,193.238 96.726 C 193.695 96.944,194.069 97.199,194.069 97.294 C 194.069 97.388,195.075 97.646,196.305 97.868 C 198.693 98.298,199.069 98.490,200.595 100.059 C 201.134 100.614,201.701 101.068,201.855 101.068 C 202.009 101.068,202.135 101.157,202.135 101.267 C 202.135 101.377,202.776 101.661,203.559 101.898 C 204.342 102.135,204.982 102.396,204.982 102.477 C 204.982 102.558,205.489 102.772,206.109 102.951 C 209.760 104.008,209.991 110.383,206.406 111.151 C 205.949 111.249,205.522 111.409,205.457 111.508 C 205.391 111.606,204.504 111.914,203.486 112.193 C 201.806 112.652,200.490 113.460,200.467 114.046 C 200.430 114.988,198.349 116.088,196.085 116.364 C 195.302 116.459,194.609 116.611,194.543 116.701 C 194.478 116.792,194.000 116.968,193.482 117.092 C 192.846 117.245,192.443 117.513,192.246 117.912 C 191.800 118.815,190.484 120.285,190.121 120.285 C 189.943 120.285,189.798 120.381,189.798 120.499 C 189.798 120.803,188.450 121.234,187.496 121.234 C 186.470 121.234,184.579 121.703,184.579 121.958 C 184.579 122.064,184.371 122.217,184.117 122.297 C 183.862 122.378,183.581 122.679,183.492 122.966 C 183.250 123.746,181.954 124.991,181.079 125.283 C 180.655 125.425,180.308 125.631,180.308 125.741 C 180.308 125.951,179.751 126.087,177.855 126.337 C 176.776 126.480,175.089 127.704,175.089 128.346 C 175.089 128.451,174.651 128.712,174.115 128.927 C 173.579 129.141,172.995 129.462,172.816 129.641 C 172.493 129.965,170.308 130.396,169.632 130.270 C 169.161 130.183,167.793 128.803,167.729 128.351 C 167.633 127.680,167.736 127.478,168.669 126.497 C 169.391 125.738,169.837 125.481,170.626 125.369 C 172.215 125.144,173.191 124.787,173.191 124.430 C 173.191 124.251,173.327 124.019,173.493 123.915 C 173.659 123.810,173.982 123.431,174.210 123.072 C 174.439 122.714,174.786 122.420,174.983 122.420 C 175.180 122.420,175.398 122.272,175.467 122.092 C 175.536 121.911,176.387 121.511,177.356 121.202 C 178.326 120.893,179.120 120.560,179.121 120.463 C 179.122 120.365,179.355 120.285,179.639 120.285 C 180.478 120.285,181.732 119.742,181.732 119.379 C 181.732 118.805,183.577 117.263,184.462 117.097 C 184.918 117.012,185.291 116.859,185.291 116.757 C 185.291 116.655,186.091 116.321,187.070 116.014 C 188.049 115.707,188.849 115.381,188.849 115.288 C 188.849 115.196,189.071 115.063,189.341 114.992 C 189.612 114.921,189.891 114.642,189.962 114.371 C 190.033 114.100,190.159 113.877,190.241 113.875 C 190.324 113.873,190.753 113.553,191.194 113.164 C 192.017 112.439,192.867 112.132,194.840 111.851 C 195.460 111.762,195.967 111.595,195.967 111.480 C 195.967 111.364,196.123 111.269,196.315 111.269 C 198.149 111.269,198.813 110.057,198.881 106.587 C 198.943 103.415,198.866 103.291,196.596 102.902 C 195.728 102.754,195.018 102.547,195.018 102.443 C 195.018 102.339,194.700 102.254,194.311 102.254 C 192.886 102.254,190.548 100.882,190.518 100.028 C 190.507 99.719,189.539 98.932,189.169 98.932 C 188.993 98.932,188.849 98.840,188.849 98.727 C 188.849 98.613,187.888 98.273,186.714 97.970 C 185.540 97.668,184.579 97.333,184.579 97.227 C 184.579 97.121,184.427 97.034,184.242 97.034 C 183.550 97.034,182.420 96.175,182.023 95.347 C 181.602 94.468,181.001 94.077,179.654 93.807 C 179.231 93.723,178.885 93.560,178.885 93.446 C 178.885 93.332,178.729 93.238,178.537 93.238 C 177.878 93.238,175.974 92.485,175.487 92.032 C 175.219 91.782,174.871 91.578,174.715 91.578 C 174.558 91.578,174.124 91.189,173.751 90.714 C 172.892 89.622,172.488 89.206,172.284 89.204 C 168.524 89.172,166.386 86.529,168.530 84.565 C 169.526 83.653,169.584 83.641,171.328 84.015 M110.447 85.045 C 111.416 86.015,111.458 86.332,110.717 87.095 C 109.710 88.130,109.266 88.374,107.850 88.668 C 106.472 88.954,105.183 89.928,104.775 90.992 C 104.700 91.187,104.385 91.444,104.076 91.561 C 103.767 91.679,103.355 91.934,103.161 92.128 C 102.760 92.529,100.811 93.238,100.110 93.238 C 99.854 93.238,99.644 93.345,99.644 93.476 C 99.644 93.606,99.340 93.713,98.968 93.713 C 98.051 93.713,96.797 94.172,96.797 94.507 C 96.797 94.855,95.290 96.560,94.982 96.560 C 94.855 96.560,94.541 96.756,94.284 96.995 C 93.723 97.518,91.039 98.458,90.108 98.458 C 89.742 98.458,89.442 98.563,89.442 98.691 C 89.442 98.819,89.192 98.986,88.885 99.063 C 88.569 99.142,88.183 99.523,87.995 99.940 C 87.813 100.345,87.452 100.791,87.194 100.931 C 86.936 101.071,86.616 101.306,86.482 101.452 C 86.349 101.599,85.733 101.862,85.113 102.038 C 84.493 102.214,83.986 102.432,83.986 102.523 C 83.986 102.614,83.212 102.928,82.266 103.221 C 80.010 103.918,79.969 103.987,79.960 107.132 C 79.951 110.177,80.170 110.604,81.977 111.059 C 82.560 111.206,83.037 111.406,83.037 111.504 C 83.037 111.602,83.704 111.807,84.520 111.959 C 86.665 112.361,88.225 113.337,88.249 114.294 C 88.253 114.457,88.356 114.591,88.477 114.591 C 88.599 114.591,88.764 114.798,88.845 115.051 C 89.001 115.544,89.711 115.825,91.874 116.253 C 92.625 116.401,93.238 116.608,93.238 116.712 C 93.238 116.816,93.736 117.041,94.345 117.211 C 95.521 117.541,97.034 118.798,97.034 119.447 C 97.034 119.665,97.347 119.944,97.746 120.083 C 98.138 120.219,98.458 120.415,98.458 120.518 C 98.458 120.621,98.965 120.776,99.585 120.863 C 100.921 121.050,103.272 121.690,103.440 121.912 C 103.505 121.998,103.957 122.277,104.443 122.533 C 105.033 122.842,105.444 123.287,105.678 123.872 C 106.011 124.706,107.081 125.504,107.866 125.504 C 108.041 125.504,108.185 125.611,108.185 125.741 C 108.185 125.872,108.428 125.979,108.725 125.979 C 109.635 125.979,111.244 127.339,111.261 128.121 C 111.266 128.321,110.891 128.841,110.428 129.278 L 109.586 130.071 107.201 129.902 L 104.816 129.733 103.950 128.783 C 101.682 126.293,101.660 126.277,100.391 126.102 C 99.719 126.010,99.170 125.861,99.170 125.772 C 99.170 125.682,98.543 125.423,97.777 125.196 C 97.012 124.969,96.078 124.518,95.701 124.195 C 95.325 123.871,94.935 123.607,94.834 123.606 C 94.733 123.606,94.548 123.337,94.422 123.007 C 94.297 122.677,94.006 122.336,93.776 122.249 C 93.545 122.162,93.216 121.951,93.044 121.781 C 92.871 121.610,92.494 121.471,92.206 121.471 C 91.342 121.471,89.107 120.821,89.015 120.543 C 88.967 120.401,88.764 120.285,88.564 120.285 C 88.205 120.285,86.121 118.284,86.121 117.939 C 86.121 117.716,84.560 116.963,84.096 116.963 C 83.905 116.963,83.749 116.856,83.749 116.726 C 83.749 116.595,83.540 116.489,83.286 116.489 C 82.294 116.489,80.357 115.944,79.969 115.556 C 79.744 115.331,79.380 115.078,79.160 114.994 C 78.939 114.909,78.662 114.585,78.543 114.272 C 77.971 112.768,76.811 112.169,73.843 111.845 C 73.028 111.755,72.361 111.609,72.361 111.520 C 72.361 111.430,71.996 111.183,71.551 110.971 C 71.105 110.758,70.671 110.365,70.586 110.097 C 70.500 109.828,70.331 109.609,70.209 109.609 C 70.087 109.609,69.988 108.500,69.988 107.117 C 69.988 105.735,70.087 104.626,70.209 104.626 C 70.331 104.626,70.499 104.411,70.583 104.148 C 70.773 103.549,72.343 102.728,73.300 102.728 C 73.697 102.728,74.021 102.622,74.021 102.491 C 74.021 102.361,74.294 102.254,74.628 102.254 C 75.809 102.254,77.355 101.725,77.620 101.230 C 78.296 99.967,79.802 98.511,80.832 98.125 C 81.327 97.939,82.406 97.725,83.230 97.650 C 84.083 97.572,84.881 97.359,85.085 97.155 C 85.282 96.958,85.598 96.797,85.788 96.797 C 85.978 96.797,86.236 96.526,86.362 96.195 C 86.626 95.501,88.062 93.950,88.441 93.950 C 88.582 93.950,88.855 93.792,89.048 93.599 C 89.395 93.252,90.627 92.893,92.349 92.637 C 92.838 92.565,93.238 92.403,93.238 92.279 C 93.238 92.154,93.404 92.052,93.605 92.052 C 93.807 92.052,94.151 91.741,94.369 91.361 C 94.587 90.981,95.089 90.480,95.485 90.247 C 95.880 90.015,96.344 89.687,96.515 89.517 C 96.686 89.348,97.434 89.035,98.176 88.820 C 98.918 88.606,99.579 88.355,99.644 88.262 C 99.709 88.169,100.136 88.021,100.591 87.932 C 102.008 87.656,102.594 87.274,103.040 86.335 C 103.553 85.253,104.546 84.698,105.968 84.698 C 106.535 84.698,106.999 84.591,106.999 84.460 C 106.999 83.775,109.621 84.220,110.447 85.045 M132.029 171.935 C 131.638 171.997,131.265 172.128,131.199 172.225 C 131.133 172.323,130.399 172.535,129.567 172.696 C 128.410 172.920,127.865 173.172,127.253 173.767 L 126.453 174.544 126.453 183.954 C 126.453 191.059,126.526 193.485,126.750 193.860 C 127.445 195.025,128.310 195.692,129.666 196.111 C 130.443 196.351,131.156 196.657,131.249 196.791 C 131.483 197.128,147.997 197.126,148.229 196.789 C 148.322 196.654,149.173 196.289,150.119 195.978 C 151.065 195.667,151.839 195.318,151.839 195.203 C 151.839 195.088,152.212 194.837,152.669 194.647 C 153.126 194.456,153.499 194.192,153.499 194.060 C 153.499 193.928,153.766 193.718,154.093 193.594 L 154.686 193.369 154.685 183.932 L 154.684 174.496 153.674 174.081 C 153.119 173.852,152.541 173.665,152.390 173.665 C 152.239 173.665,152.080 173.564,152.036 173.439 C 151.955 173.207,149.446 172.479,148.724 172.479 C 148.502 172.479,148.275 172.346,148.221 172.183 C 148.122 171.885,133.730 171.664,132.029 171.935 " stroke="none" fill="#ffffff" fill-rule="evenodd"></path><path id="path2" d="M54.716 42.643 C 53.337 42.750,52.191 43.780,51.656 45.393 C 51.370 46.254,51.208 46.411,50.397 46.609 C 49.885 46.733,49.411 46.913,49.343 47.009 C 49.275 47.104,48.926 47.294,48.567 47.430 C 48.209 47.567,47.813 47.947,47.688 48.276 C 47.564 48.604,47.364 48.873,47.244 48.873 C 45.844 48.873,45.794 164.250,47.193 165.362 C 47.275 165.427,47.529 165.774,47.757 166.133 C 47.985 166.492,48.321 166.785,48.503 166.785 C 48.685 166.785,48.870 166.894,48.914 167.027 C 48.958 167.159,49.519 167.400,50.161 167.561 C 51.234 167.829,51.354 167.933,51.658 168.848 C 51.840 169.396,52.360 170.250,52.815 170.746 L 53.642 171.649 86.262 171.716 C 114.663 171.775,118.899 171.828,119.016 172.131 C 119.089 172.323,119.285 172.479,119.450 172.479 C 119.616 172.479,120.138 172.933,120.610 173.488 L 121.469 174.496 121.470 183.797 C 121.471 193.204,121.417 193.865,120.584 194.738 C 120.419 194.911,120.285 195.181,120.285 195.338 C 120.285 196.417,118.710 197.153,116.402 197.153 C 114.539 197.153,113.358 197.355,112.725 197.782 C 111.993 198.275,114.229 199.037,116.429 199.044 C 117.913 199.048,118.861 199.145,118.861 199.292 C 118.861 199.425,119.235 199.711,119.692 199.929 C 120.148 200.147,120.522 200.398,120.522 200.488 C 120.522 201.168,126.921 201.181,127.400 200.502 C 127.466 200.408,128.588 200.145,129.893 199.918 C 131.198 199.691,132.301 199.403,132.345 199.278 C 132.447 198.985,147.094 198.970,147.094 199.264 C 147.094 199.487,150.787 200.239,151.878 200.238 C 152.226 200.237,152.548 200.348,152.593 200.484 C 152.719 200.861,157.348 200.908,157.473 200.534 C 157.528 200.371,157.747 200.237,157.960 200.237 C 158.540 200.237,160.380 199.491,160.380 199.256 C 160.380 199.143,161.474 199.049,162.811 199.047 C 165.098 199.043,165.277 199.007,165.809 198.446 C 166.120 198.118,166.334 197.827,166.284 197.798 C 166.233 197.769,165.953 197.613,165.662 197.450 C 165.331 197.265,164.189 197.153,162.629 197.153 C 160.624 197.153,160.100 197.082,159.991 196.797 C 159.916 196.601,159.731 196.441,159.580 196.441 C 159.239 196.441,157.431 194.575,157.225 194.009 C 157.141 193.781,156.963 193.594,156.828 193.594 C 156.664 193.594,156.584 190.469,156.584 184.116 L 156.584 174.637 157.426 173.819 C 157.889 173.370,158.610 172.862,159.027 172.691 C 159.445 172.520,159.928 172.243,160.100 172.074 C 160.353 171.827,166.407 171.765,191.417 171.755 C 227.644 171.740,226.635 171.808,227.176 169.346 C 227.260 168.964,227.478 168.594,227.662 168.523 C 227.845 168.453,227.999 168.273,228.003 168.124 C 228.017 167.650,228.827 166.855,229.804 166.357 C 230.697 165.901,231.317 165.051,231.317 164.283 C 231.317 164.093,231.405 163.938,231.513 163.938 C 232.230 163.938,232.266 161.247,232.266 107.258 C 232.266 53.536,232.223 50.297,231.521 50.297 C 231.409 50.297,231.317 50.126,231.317 49.918 C 231.317 49.192,230.517 48.194,229.605 47.782 C 229.099 47.554,228.507 47.066,228.289 46.697 C 228.071 46.328,227.813 46.026,227.716 46.026 C 227.619 46.026,227.409 45.588,227.248 45.053 C 227.077 44.482,226.706 43.921,226.349 43.695 C 226.015 43.482,225.688 43.244,225.623 43.165 C 225.075 42.502,220.618 42.468,138.982 42.510 C 93.271 42.534,55.352 42.593,54.716 42.643 M219.440 46.473 C 221.181 46.586,222.187 46.750,222.247 46.931 C 222.299 47.086,222.490 47.212,222.671 47.212 C 222.853 47.212,223.189 47.506,223.417 47.865 C 223.646 48.224,223.907 48.572,223.997 48.638 C 224.088 48.705,224.231 49.035,224.315 49.371 C 224.497 50.096,225.852 51.724,226.272 51.722 C 227.311 51.716,227.284 50.219,227.284 107.117 C 227.284 164.016,227.311 162.519,226.272 162.513 C 225.786 162.511,224.447 164.234,224.292 165.062 C 224.212 165.488,224.058 165.836,223.949 165.836 C 223.840 165.836,223.568 166.148,223.343 166.528 C 222.536 167.895,223.562 167.854,190.273 167.839 C 173.505 167.832,157.011 167.830,153.618 167.835 C 145.551 167.847,133.369 167.836,125.504 167.808 C 122.046 167.796,105.552 167.802,88.849 167.820 C 57.924 167.854,56.413 167.816,55.421 166.996 C 55.277 166.877,54.867 166.560,54.508 166.291 C 54.149 166.022,53.855 165.667,53.855 165.501 C 53.855 165.336,53.588 165.079,53.262 164.930 C 52.936 164.782,52.669 164.505,52.669 164.316 C 52.669 164.127,52.522 163.825,52.342 163.645 C 51.639 162.942,51.605 159.773,51.720 106.163 L 51.839 51.116 52.372 50.543 C 52.666 50.228,52.906 49.837,52.906 49.675 C 52.906 49.512,53.114 49.314,53.369 49.233 C 53.623 49.152,53.896 48.881,53.976 48.630 C 54.055 48.379,54.461 47.936,54.878 47.645 C 55.294 47.354,55.690 47.038,55.758 46.942 C 55.826 46.846,56.413 46.666,57.063 46.542 C 58.473 46.273,215.342 46.206,219.440 46.473 M49.322 106.050 C 49.334 135.214,49.269 159.662,49.177 160.380 L 49.010 161.684 48.841 160.617 C 48.622 159.243,48.582 53.703,48.799 52.639 C 49.242 50.475,49.302 56.584,49.322 106.050 M150.719 73.866 C 150.430 74.010,149.951 74.637,149.655 75.261 C 149.359 75.884,149.043 76.394,148.953 76.394 C 148.862 76.394,148.723 77.008,148.642 77.758 C 148.334 80.623,147.794 81.833,146.666 82.192 C 146.404 82.275,146.004 82.739,145.777 83.223 C 145.549 83.708,145.270 84.165,145.157 84.239 C 144.887 84.416,144.319 87.211,144.112 89.383 C 144.022 90.329,143.867 91.103,143.768 91.103 C 143.669 91.103,143.516 91.485,143.429 91.951 C 143.306 92.605,143.113 92.853,142.582 93.038 C 142.203 93.170,141.829 93.483,141.749 93.733 C 141.670 93.983,141.513 94.187,141.401 94.187 C 141.088 94.187,140.515 95.479,140.325 96.611 C 140.232 97.170,140.066 97.685,139.956 97.755 C 139.846 97.825,139.600 99.157,139.407 100.715 C 139.215 102.273,138.944 103.586,138.805 103.633 C 138.666 103.679,138.549 103.895,138.545 104.112 C 138.535 104.675,137.977 105.338,137.514 105.338 C 137.298 105.338,136.943 105.712,136.726 106.168 C 136.508 106.625,136.247 106.999,136.146 106.999 C 135.864 106.999,135.256 109.255,135.083 110.945 C 134.998 111.776,134.852 112.456,134.758 112.456 C 134.664 112.456,134.520 113.101,134.437 113.890 C 134.255 115.631,134.000 116.152,133.237 116.343 C 132.916 116.424,132.586 116.703,132.503 116.964 C 132.420 117.224,132.261 117.438,132.148 117.438 C 131.877 117.438,131.198 118.820,131.198 119.372 C 131.198 119.613,131.110 119.810,131.002 119.810 C 130.766 119.810,130.321 122.127,130.103 124.496 C 130.015 125.442,129.852 126.216,129.741 126.216 C 129.629 126.216,129.537 126.387,129.537 126.595 C 129.537 127.333,128.778 128.588,128.332 128.588 C 128.091 128.588,127.766 128.826,127.610 129.117 C 127.455 129.408,127.187 129.787,127.015 129.959 C 126.650 130.324,125.979 132.460,125.979 133.258 C 125.979 133.560,125.883 133.808,125.766 133.808 C 125.330 133.808,125.171 137.659,125.594 137.968 C 125.806 138.123,125.979 138.359,125.979 138.492 C 125.979 138.810,126.947 139.438,127.746 139.639 C 128.375 139.797,129.537 139.044,129.537 138.478 C 129.537 138.352,129.692 138.131,129.882 137.986 C 130.108 137.813,130.323 136.847,130.507 135.172 C 130.662 133.769,130.867 132.622,130.963 132.622 C 131.059 132.622,131.206 132.196,131.289 131.675 C 131.416 130.877,131.571 130.673,132.268 130.382 C 132.724 130.192,133.096 129.876,133.096 129.680 C 133.096 129.484,133.262 129.231,133.465 129.117 C 133.870 128.891,134.493 127.348,134.509 126.532 C 134.515 126.250,134.621 125.983,134.746 125.939 C 134.870 125.896,135.087 124.846,135.228 123.606 C 135.699 119.467,136.094 118.414,137.183 118.394 C 137.436 118.390,137.784 117.965,138.097 117.277 C 138.375 116.667,138.740 116.030,138.908 115.863 C 139.231 115.540,139.739 113.046,139.739 111.784 C 139.739 111.370,139.846 111.032,139.976 111.032 C 140.107 111.032,140.214 110.770,140.214 110.451 C 140.214 108.726,140.715 107.468,141.539 107.124 C 141.984 106.938,142.349 106.620,142.349 106.418 C 142.349 106.215,142.453 106.050,142.580 106.050 C 142.889 106.050,143.535 104.774,143.535 104.164 C 143.535 103.896,143.628 103.677,143.743 103.677 C 144.006 103.677,144.182 102.810,144.608 99.408 C 144.797 97.908,145.059 96.645,145.192 96.601 C 145.324 96.557,145.433 96.337,145.433 96.113 C 145.433 95.588,145.889 95.136,146.418 95.136 C 146.667 95.136,147.000 94.779,147.248 94.247 C 147.476 93.757,147.745 93.299,147.845 93.229 C 148.122 93.035,148.754 91.122,148.754 90.480 C 148.754 90.170,148.846 89.917,148.958 89.917 C 149.069 89.917,149.230 89.173,149.315 88.263 C 149.619 84.989,149.879 84.244,150.855 83.853 C 151.410 83.631,151.840 83.246,152.042 82.791 C 152.215 82.398,152.498 81.937,152.670 81.765 C 153.280 81.155,153.739 77.121,153.318 76.069 C 153.022 75.328,151.505 73.458,151.297 73.576 C 151.269 73.592,151.009 73.723,150.719 73.866 M279.953 80.110 C 279.365 80.315,278.832 80.560,278.766 80.656 C 278.701 80.752,278.407 80.957,278.114 81.112 C 277.454 81.459,277.432 81.966,278.055 82.499 C 278.316 82.722,278.529 83.041,278.529 83.208 C 278.529 83.375,278.719 83.702,278.952 83.934 C 279.185 84.167,279.563 84.753,279.792 85.236 C 280.021 85.719,280.445 86.236,280.733 86.385 C 281.198 86.625,282.400 87.803,283.201 88.803 C 284.247 90.108,284.223 89.473,284.221 116.103 C 284.220 136.989,284.159 141.765,283.865 144.119 C 283.671 145.680,283.511 147.575,283.511 148.330 C 283.511 149.088,283.405 149.703,283.274 149.703 C 283.144 149.703,283.037 150.125,283.037 150.641 C 283.037 151.993,282.638 152.735,281.101 154.240 C 280.352 154.973,279.670 155.850,279.586 156.187 C 279.430 156.809,277.878 157.770,277.031 157.770 C 276.811 157.770,276.631 157.850,276.630 157.948 C 276.630 158.046,276.313 158.338,275.926 158.598 C 273.395 160.293,274.794 163.271,277.947 162.900 C 280.125 162.644,281.858 162.095,282.317 161.515 C 282.553 161.217,283.077 160.599,283.481 160.142 C 283.885 159.686,284.217 159.248,284.219 159.170 C 284.221 159.092,284.677 158.827,285.231 158.581 C 285.786 158.335,286.381 157.999,286.553 157.833 C 286.726 157.668,286.964 157.533,287.082 157.533 C 287.378 157.533,288.256 155.765,288.256 155.170 C 288.256 154.903,288.347 154.686,288.459 154.686 C 288.716 154.686,289.137 152.129,289.348 149.288 C 289.437 148.081,289.602 147.094,289.714 147.094 C 290.035 147.094,289.950 145.958,289.620 145.848 C 289.162 145.696,289.049 90.621,289.506 90.277 C 289.683 90.144,289.895 89.855,289.978 89.634 C 290.061 89.413,290.428 89.041,290.794 88.807 C 291.160 88.573,291.578 88.268,291.724 88.130 C 291.870 87.991,292.431 87.733,292.970 87.555 C 293.509 87.377,293.950 87.150,293.950 87.050 C 293.950 86.951,294.324 86.746,294.781 86.595 C 295.341 86.411,295.658 86.134,295.755 85.747 C 295.835 85.431,295.990 85.172,296.101 85.172 C 296.212 85.172,296.529 84.413,296.805 83.485 C 297.391 81.516,297.233 80.800,296.061 80.130 C 295.030 79.541,281.635 79.524,279.953 80.110 M305.936 79.875 C 303.582 80.090,302.558 82.189,304.069 83.700 C 304.245 83.876,304.389 84.163,304.389 84.339 C 304.389 84.766,306.046 86.595,306.433 86.595 C 306.601 86.595,306.823 86.741,306.928 86.919 C 307.032 87.097,307.464 87.420,307.888 87.637 C 308.313 87.854,308.660 88.135,308.660 88.262 C 308.660 88.389,308.807 88.493,308.988 88.493 C 309.369 88.493,310.083 89.494,310.083 90.027 C 310.083 90.228,310.184 90.391,310.308 90.391 C 310.448 90.391,310.569 99.826,310.626 115.362 C 310.721 141.008,310.774 142.408,311.654 142.901 C 311.863 143.018,312.211 143.289,312.426 143.502 C 312.760 143.834,313.953 144.484,314.226 144.484 C 314.274 144.484,314.776 144.053,315.342 143.526 L 316.370 142.567 316.452 140.323 C 316.498 139.088,316.631 138.078,316.749 138.078 C 316.873 138.078,316.963 133.954,316.963 128.276 C 316.963 117.724,317.052 116.813,318.214 115.461 L 318.758 114.828 335.044 114.828 C 352.912 114.828,351.688 114.724,352.322 116.291 C 352.498 116.726,352.755 117.158,352.893 117.251 C 353.058 117.363,353.195 120.868,353.294 127.571 C 353.390 134.060,353.538 137.960,353.705 138.381 C 354.169 139.547,355.637 141.089,356.908 141.743 C 357.401 141.997,358.091 142.451,358.440 142.751 C 358.789 143.051,359.254 143.297,359.473 143.297 C 359.692 143.298,360.031 143.458,360.227 143.654 C 360.494 143.921,361.152 144.009,362.860 144.009 L 365.137 144.009 366.205 142.942 C 366.792 142.355,367.179 141.874,367.065 141.874 C 366.950 141.874,366.658 141.392,366.415 140.804 C 366.061 139.944,365.762 139.632,364.897 139.219 C 364.304 138.936,363.766 138.631,363.701 138.542 C 363.636 138.453,363.363 138.311,363.094 138.227 C 362.826 138.144,362.113 137.596,361.510 137.010 C 359.568 135.123,359.668 136.595,359.668 109.750 C 359.668 94.155,359.587 86.121,359.431 86.121 C 359.300 86.121,359.193 85.925,359.193 85.684 C 359.193 83.492,357.855 80.795,356.379 80.013 C 355.065 79.317,348.043 79.880,348.043 80.681 C 348.043 80.802,347.903 80.902,347.732 80.902 C 346.481 80.902,346.636 82.293,348.056 83.818 C 348.310 84.090,348.517 84.380,348.517 84.462 C 348.517 84.760,350.079 86.358,350.370 86.358 C 350.784 86.358,352.313 87.926,352.313 88.350 C 352.313 88.541,352.500 88.884,352.728 89.112 C 353.365 89.748,353.365 105.981,352.729 106.617 C 352.501 106.845,352.248 107.294,352.168 107.615 C 352.087 107.935,351.827 108.302,351.590 108.429 C 350.908 108.793,318.839 108.723,318.387 108.355 C 317.139 107.342,317.087 106.876,317.013 96.145 C 316.970 89.953,316.857 86.121,316.716 86.121 C 316.591 86.121,316.489 85.781,316.489 85.365 C 316.489 83.830,315.767 81.662,314.965 80.786 L 314.187 79.937 310.652 79.852 C 308.708 79.805,306.586 79.815,305.936 79.875 M168.530 84.565 C 166.386 86.529,168.524 89.172,172.284 89.204 C 172.488 89.206,172.892 89.622,173.751 90.714 C 174.124 91.189,174.558 91.578,174.715 91.578 C 174.871 91.578,175.219 91.782,175.487 92.032 C 175.974 92.485,177.878 93.238,178.537 93.238 C 178.729 93.238,178.885 93.332,178.885 93.446 C 178.885 93.560,179.231 93.723,179.654 93.807 C 181.001 94.077,181.602 94.468,182.023 95.347 C 182.420 96.175,183.550 97.034,184.242 97.034 C 184.427 97.034,184.579 97.121,184.579 97.227 C 184.579 97.333,185.540 97.668,186.714 97.970 C 187.888 98.273,188.849 98.613,188.849 98.727 C 188.849 98.840,188.993 98.932,189.169 98.932 C 189.539 98.932,190.507 99.719,190.518 100.028 C 190.548 100.882,192.886 102.254,194.311 102.254 C 194.700 102.254,195.018 102.339,195.018 102.443 C 195.018 102.547,195.728 102.754,196.596 102.902 C 198.866 103.291,198.943 103.415,198.881 106.587 C 198.813 110.057,198.149 111.269,196.315 111.269 C 196.123 111.269,195.967 111.364,195.967 111.480 C 195.967 111.595,195.460 111.762,194.840 111.851 C 192.867 112.132,192.017 112.439,191.194 113.164 C 190.753 113.553,190.324 113.873,190.241 113.875 C 190.159 113.877,190.033 114.100,189.962 114.371 C 189.891 114.642,189.612 114.921,189.341 114.992 C 189.071 115.063,188.849 115.196,188.849 115.288 C 188.849 115.381,188.049 115.707,187.070 116.014 C 186.091 116.321,185.291 116.655,185.291 116.757 C 185.291 116.859,184.918 117.012,184.462 117.097 C 183.577 117.263,181.732 118.805,181.732 119.379 C 181.732 119.742,180.478 120.285,179.639 120.285 C 179.355 120.285,179.122 120.365,179.121 120.463 C 179.120 120.560,178.326 120.893,177.356 121.202 C 176.387 121.511,175.536 121.911,175.467 122.092 C 175.398 122.272,175.180 122.420,174.983 122.420 C 174.786 122.420,174.439 122.714,174.210 123.072 C 173.982 123.431,173.659 123.810,173.493 123.915 C 173.327 124.019,173.191 124.251,173.191 124.430 C 173.191 124.787,172.215 125.144,170.626 125.369 C 169.634 125.510,167.786 127.009,167.706 127.737 C 167.531 129.347,169.159 130.460,171.240 130.151 C 171.928 130.049,172.638 129.820,172.816 129.641 C 172.995 129.462,173.579 129.141,174.115 128.927 C 174.651 128.712,175.089 128.451,175.089 128.346 C 175.089 127.704,176.776 126.480,177.855 126.337 C 179.751 126.087,180.308 125.951,180.308 125.741 C 180.308 125.631,180.655 125.425,181.079 125.283 C 181.954 124.991,183.250 123.746,183.492 122.966 C 183.581 122.679,183.862 122.378,184.117 122.297 C 184.371 122.217,184.579 122.064,184.579 121.958 C 184.579 121.703,186.470 121.234,187.496 121.234 C 188.450 121.234,189.798 120.803,189.798 120.499 C 189.798 120.381,189.943 120.285,190.121 120.285 C 190.484 120.285,191.800 118.815,192.246 117.912 C 192.443 117.513,192.846 117.245,193.482 117.092 C 194.000 116.968,194.478 116.792,194.543 116.701 C 194.609 116.611,195.302 116.459,196.085 116.364 C 198.349 116.088,200.430 114.988,200.467 114.046 C 200.490 113.460,201.806 112.652,203.486 112.193 C 204.504 111.914,205.391 111.606,205.457 111.508 C 205.522 111.409,205.949 111.249,206.406 111.151 C 208.152 110.777,208.778 109.712,208.778 107.117 C 208.778 104.436,208.218 103.561,206.109 102.951 C 205.489 102.772,204.982 102.558,204.982 102.477 C 204.982 102.396,204.342 102.135,203.559 101.898 C 202.776 101.661,202.135 101.377,202.135 101.267 C 202.135 101.157,202.009 101.068,201.855 101.068 C 201.701 101.068,201.134 100.614,200.595 100.059 C 199.069 98.490,198.693 98.298,196.305 97.868 C 195.075 97.646,194.069 97.388,194.069 97.294 C 194.069 97.199,193.695 96.944,193.238 96.726 C 192.782 96.509,192.408 96.209,192.408 96.061 C 192.408 95.665,190.714 94.044,190.095 93.849 C 189.801 93.757,189.561 93.588,189.561 93.474 C 189.561 93.361,189.054 93.198,188.434 93.113 C 185.962 92.773,184.104 91.865,184.104 90.997 C 184.104 90.850,183.757 90.527,183.333 90.278 C 182.909 90.029,182.424 89.688,182.255 89.521 C 181.948 89.218,179.792 88.493,179.198 88.493 C 179.026 88.493,178.885 88.387,178.885 88.256 C 178.885 88.126,178.546 88.019,178.131 88.019 C 177.140 88.019,175.801 87.525,175.801 87.160 C 175.801 86.739,174.002 84.935,173.582 84.935 C 173.386 84.935,173.078 84.788,172.899 84.609 C 172.601 84.310,170.545 83.749,169.752 83.749 C 169.570 83.749,169.020 84.116,168.530 84.565 M106.999 84.460 C 106.999 84.591,106.535 84.698,105.968 84.698 C 104.546 84.698,103.553 85.253,103.040 86.335 C 102.594 87.274,102.008 87.656,100.591 87.932 C 100.136 88.021,99.709 88.169,99.644 88.262 C 99.579 88.355,98.918 88.606,98.176 88.820 C 97.434 89.035,96.686 89.348,96.515 89.517 C 96.344 89.687,95.880 90.015,95.485 90.247 C 95.089 90.480,94.587 90.981,94.369 91.361 C 94.151 91.741,93.807 92.052,93.605 92.052 C 93.404 92.052,93.238 92.154,93.238 92.279 C 93.238 92.403,92.838 92.565,92.349 92.637 C 90.627 92.893,89.395 93.252,89.048 93.599 C 88.855 93.792,88.582 93.950,88.441 93.950 C 88.062 93.950,86.626 95.501,86.362 96.195 C 86.236 96.526,85.978 96.797,85.788 96.797 C 85.598 96.797,85.282 96.958,85.085 97.155 C 84.881 97.359,84.083 97.572,83.230 97.650 C 82.406 97.725,81.327 97.939,80.832 98.125 C 79.802 98.511,78.296 99.967,77.620 101.230 C 77.355 101.725,75.809 102.254,74.628 102.254 C 74.294 102.254,74.021 102.361,74.021 102.491 C 74.021 102.622,73.697 102.728,73.300 102.728 C 72.343 102.728,70.773 103.549,70.583 104.148 C 70.499 104.411,70.331 104.626,70.209 104.626 C 70.087 104.626,69.988 105.735,69.988 107.117 C 69.988 108.500,70.087 109.609,70.209 109.609 C 70.331 109.609,70.500 109.828,70.586 110.097 C 70.671 110.365,71.105 110.758,71.551 110.971 C 71.996 111.183,72.361 111.430,72.361 111.520 C 72.361 111.609,73.028 111.755,73.843 111.845 C 76.811 112.169,77.971 112.768,78.543 114.272 C 78.662 114.585,78.939 114.909,79.160 114.994 C 79.380 115.078,79.744 115.331,79.969 115.556 C 80.357 115.944,82.294 116.489,83.286 116.489 C 83.540 116.489,83.749 116.595,83.749 116.726 C 83.749 116.856,83.905 116.963,84.096 116.963 C 84.560 116.963,86.121 117.716,86.121 117.939 C 86.121 118.284,88.205 120.285,88.564 120.285 C 88.764 120.285,88.967 120.401,89.015 120.543 C 89.107 120.821,91.342 121.471,92.206 121.471 C 92.494 121.471,92.871 121.610,93.044 121.781 C 93.216 121.951,93.545 122.162,93.776 122.249 C 94.006 122.336,94.297 122.677,94.422 123.007 C 94.548 123.337,94.733 123.606,94.834 123.606 C 94.935 123.607,95.325 123.871,95.701 124.195 C 96.078 124.518,97.012 124.969,97.777 125.196 C 98.543 125.423,99.170 125.682,99.170 125.772 C 99.170 125.861,99.719 126.010,100.391 126.102 C 101.660 126.277,101.682 126.293,103.950 128.783 L 104.816 129.733 107.201 129.902 L 109.586 130.071 110.428 129.278 C 110.891 128.841,111.266 128.321,111.261 128.121 C 111.244 127.339,109.635 125.979,108.725 125.979 C 108.428 125.979,108.185 125.872,108.185 125.741 C 108.185 125.611,108.041 125.504,107.866 125.504 C 107.081 125.504,106.011 124.706,105.678 123.872 C 105.444 123.287,105.033 122.842,104.443 122.533 C 103.957 122.277,103.505 121.998,103.440 121.912 C 103.272 121.690,100.921 121.050,99.585 120.863 C 98.965 120.776,98.458 120.621,98.458 120.518 C 98.458 120.415,98.138 120.219,97.746 120.083 C 97.347 119.944,97.034 119.665,97.034 119.447 C 97.034 118.798,95.521 117.541,94.345 117.211 C 93.736 117.041,93.238 116.816,93.238 116.712 C 93.238 116.608,92.625 116.401,91.874 116.253 C 89.711 115.825,89.001 115.544,88.845 115.051 C 88.764 114.798,88.599 114.591,88.477 114.591 C 88.356 114.591,88.253 114.457,88.249 114.294 C 88.225 113.337,86.665 112.361,84.520 111.959 C 83.704 111.807,83.037 111.602,83.037 111.504 C 83.037 111.406,82.560 111.206,81.977 111.059 C 80.170 110.604,79.951 110.177,79.960 107.132 C 79.969 103.987,80.010 103.918,82.266 103.221 C 83.212 102.928,83.986 102.614,83.986 102.523 C 83.986 102.432,84.493 102.214,85.113 102.038 C 85.733 101.862,86.349 101.599,86.482 101.452 C 86.616 101.306,86.936 101.071,87.194 100.931 C 87.452 100.791,87.813 100.345,87.995 99.940 C 88.183 99.523,88.569 99.142,88.885 99.063 C 89.192 98.986,89.442 98.819,89.442 98.691 C 89.442 98.563,89.742 98.458,90.108 98.458 C 91.039 98.458,93.723 97.518,94.284 96.995 C 94.541 96.756,94.855 96.560,94.982 96.560 C 95.290 96.560,96.797 94.855,96.797 94.507 C 96.797 94.172,98.051 93.713,98.968 93.713 C 99.340 93.713,99.644 93.606,99.644 93.476 C 99.644 93.345,99.854 93.238,100.110 93.238 C 100.811 93.238,102.760 92.529,103.161 92.128 C 103.355 91.934,103.767 91.679,104.076 91.561 C 104.385 91.444,104.700 91.187,104.775 90.992 C 105.183 89.928,106.472 88.954,107.850 88.668 C 111.874 87.833,112.249 84.223,108.312 84.223 C 107.590 84.223,106.999 84.330,106.999 84.460 M356.465 111.269 C 356.465 135.262,356.370 139.349,355.863 137.248 C 355.768 136.856,355.678 132.301,355.663 127.125 C 355.641 119.828,355.568 117.692,355.338 117.616 C 355.112 117.540,355.042 116.151,355.042 111.744 C 355.042 107.336,355.112 105.947,355.338 105.872 C 355.705 105.750,355.776 90.007,355.411 89.877 C 354.910 89.700,355.003 85.459,355.516 85.082 C 356.456 84.394,356.465 84.654,356.465 111.269 M314.461 85.469 C 314.569 85.966,314.859 104.569,314.871 111.744 C 314.876 114.896,314.442 141.462,314.383 141.578 C 313.692 142.947,313.604 140.276,313.442 113.187 C 313.319 92.553,313.223 86.970,312.989 86.892 C 312.543 86.743,312.632 86.195,313.210 85.530 C 313.851 84.792,314.309 84.770,314.461 85.469 M286.819 148.754 C 286.814 150.667,286.200 154.604,286.141 153.104 C 286.130 152.821,286.000 152.550,285.853 152.501 C 285.514 152.388,285.552 145.827,285.892 145.710 C 286.018 145.666,286.128 145.346,286.137 144.998 C 286.182 143.195,286.825 146.734,286.819 148.754 M277.580 160.617 C 277.580 160.747,277.367 160.854,277.106 160.854 C 276.845 160.854,276.631 160.747,276.631 160.617 C 276.631 160.486,276.845 160.380,277.106 160.380 C 277.367 160.380,277.580 160.486,277.580 160.617 M124.911 170.032 C 124.650 170.092,124.197 170.426,123.904 170.776 C 123.548 171.201,123.371 171.292,123.370 171.051 C 123.369 170.853,123.075 170.509,122.716 170.287 C 122.065 169.883,122.066 169.882,123.725 169.903 C 124.638 169.915,125.172 169.973,124.911 170.032 M148.221 172.183 C 148.275 172.346,148.502 172.479,148.724 172.479 C 149.446 172.479,151.955 173.207,152.036 173.439 C 152.080 173.564,152.239 173.665,152.390 173.665 C 152.541 173.665,153.119 173.852,153.674 174.081 L 154.684 174.496 154.685 183.932 L 154.686 193.369 154.093 193.594 C 153.766 193.718,153.499 193.928,153.499 194.060 C 153.499 194.192,153.126 194.456,152.669 194.647 C 152.212 194.837,151.839 195.088,151.839 195.203 C 151.839 195.318,151.065 195.667,150.119 195.978 C 149.173 196.289,148.322 196.654,148.229 196.789 C 147.997 197.126,131.483 197.128,131.249 196.791 C 131.156 196.657,130.443 196.351,129.666 196.111 C 128.310 195.692,127.445 195.025,126.750 193.860 C 126.526 193.485,126.453 191.059,126.453 183.954 L 126.453 174.544 127.253 173.767 C 127.865 173.172,128.410 172.920,129.567 172.696 C 130.399 172.535,131.133 172.323,131.199 172.225 C 131.550 171.703,148.047 171.661,148.221 172.183 " stroke="none" fill="#474c54" fill-rule="evenodd"></path></g></svg>